<svg width="228" height="92" viewBox="0 0 228 92" fill="none" xmlns="http://www.w3.org/2000/svg">
<path d="M222.246 91.8217H191.796V4.43263C191.796 3.25702 192.346 2.12957 193.324 1.29829C194.301 0.467008 195.628 0 197.01 0H222.246C223.629 0 224.955 0.467008 225.933 1.29829C226.911 2.12957 227.46 3.25702 227.46 4.43263V87.389C227.46 87.9711 227.325 88.5475 227.063 89.0853C226.801 89.6231 226.417 90.1118 225.933 90.5234C225.449 90.935 224.874 91.2615 224.241 91.4842C223.609 91.707 222.931 91.8217 222.246 91.8217Z" fill="url(#paint0_linear_2008_27)"/>
<path style="mix-blend-mode:multiply" opacity="0.15" d="M203.866 22.8544H195.862V91.8217H209.08V27.2826C209.08 26.7008 208.945 26.1247 208.683 25.5873C208.421 25.0499 208.036 24.5617 207.552 24.1505C207.068 23.7393 206.493 23.4132 205.861 23.1908C205.229 22.9684 204.551 22.8541 203.866 22.8544Z" fill="url(#paint1_linear_2008_27)"/>
<path d="M205.015 91.8217H168.805V27.2826C168.805 26.7006 168.94 26.1243 169.202 25.5866C169.464 25.0489 169.848 24.5604 170.332 24.149C170.816 23.7376 171.391 23.4113 172.024 23.1888C172.656 22.9663 173.334 22.8519 174.019 22.8522H199.804C201.186 22.8522 202.511 23.3189 203.488 24.1498C204.466 24.9807 205.015 26.1075 205.015 27.2826V91.8217Z" fill="url(#paint2_linear_2008_27)"/>
<path style="mix-blend-mode:multiply" opacity="0.15" d="M178.644 45.6864H170.09V91.8306H183.855V50.1101C183.853 48.9362 183.303 47.8111 182.326 46.9817C181.349 46.1522 180.025 45.6864 178.644 45.6864Z" fill="url(#paint3_linear_2008_27)"/>
<path d="M182.572 91.8217H151.573C150.889 91.8217 150.211 91.707 149.578 91.4842C148.946 91.2614 148.371 90.9349 147.887 90.5232C147.403 90.1116 147.02 89.6229 146.758 89.0852C146.496 88.5474 146.362 87.971 146.362 87.389V50.1101C146.364 48.9362 146.914 47.8111 147.891 46.9817C148.868 46.1522 150.193 45.6864 151.573 45.6864H177.35C178.733 45.6864 180.059 46.1534 181.037 46.9847C182.015 47.816 182.564 48.9434 182.564 50.119L182.572 91.8217Z" fill="url(#paint4_linear_2008_27)"/>
<path d="M0.792375 57.429C0.573889 57.4185 0.368836 57.336 0.2209 57.1989C0.072963 57.0618 -0.00616341 56.881 0.000375256 56.695V36.1568C0.000375256 35.4274 0.293415 35.0099 0.792375 35.0099H6.91717C10.1802 35.0099 13.108 36.6753 14.2009 39.1553C14.6307 40.1822 14.762 41.2823 14.5836 42.3616C14.4053 43.441 13.9226 44.4677 13.1766 45.3543C11.7352 47.1206 9.50965 48.1754 7.22077 48.1754L1.63454 48.2405V56.7467C1.62695 56.9302 1.53457 57.1038 1.37742 57.2299C1.22026 57.3559 1.01101 57.4242 0.795016 57.42L0.792375 57.429ZM1.63454 46.8423H7.22077C10.2805 46.8108 13.0657 44.2051 13.0657 41.375C13.0643 40.0575 12.4481 38.7943 11.3522 37.8627C10.2564 36.931 8.77052 36.4071 7.22077 36.4059H1.63454V46.8423Z" fill="#2E4083"/>
<path d="M26.1733 57.8958C20.9884 57.8958 16.7697 54.105 16.7697 49.4457C16.7697 44.7864 20.9937 40.9979 26.1733 40.9979C31.353 40.9979 35.5823 44.7887 35.5823 49.4457C35.5823 54.1028 31.3583 57.8958 26.1733 57.8958ZM26.1733 42.45C21.9493 42.45 18.5173 45.5922 18.5173 49.4457C18.5173 53.2993 21.9493 56.4033 26.1733 56.4033C30.3973 56.4033 33.8293 53.2814 33.8293 49.4457C33.8293 45.6101 30.3947 42.45 26.1733 42.45Z" fill="#2E4083"/>
<path d="M55.3823 57.8958C55.2331 57.8791 55.0918 57.8287 54.9734 57.7497C54.855 57.6708 54.7637 57.5662 54.7091 57.4469V57.4222L54.6457 57.3706L49.8937 44.1804L45.1549 57.3571C45.1256 57.3848 45.1095 57.4209 45.1101 57.4581C45.0433 57.5818 44.9378 57.6874 44.805 57.7634C44.6723 57.8394 44.5175 57.8829 44.3577 57.8891C44.2427 57.8817 44.1297 57.8597 44.0224 57.824C43.9996 57.8248 43.9769 57.8209 43.9562 57.8127C43.9356 57.8045 43.9175 57.7922 43.9036 57.7768C43.8133 57.7448 43.7319 57.6968 43.665 57.6361C43.5981 57.5753 43.5472 57.5032 43.5155 57.4245L38.3173 42.1628C38.2328 41.9851 38.2305 41.7869 38.3108 41.6079C38.3911 41.4289 38.5481 41.2823 38.7503 41.1977C38.8526 41.1624 38.962 41.1441 39.0724 41.1438C39.2425 41.141 39.4095 41.1826 39.5511 41.2628C39.6926 41.343 39.802 41.4581 39.8644 41.5927L44.3022 55.3552L49.0542 42.1807C49.1316 42.0424 49.2535 41.9255 49.4059 41.8437C49.5582 41.7619 49.7347 41.7185 49.9149 41.7185C50.095 41.7185 50.2715 41.7619 50.4238 41.8437C50.5762 41.9255 50.6981 42.0424 50.7755 42.1807L55.509 55.3372L60.6042 41.5927C60.6761 41.4588 60.7917 41.3454 60.9372 41.2658C61.0828 41.1862 61.2522 41.1439 61.4253 41.1438C61.5264 41.1436 61.6263 41.162 61.7183 41.1977C61.9299 41.2728 62.0985 41.4155 62.1879 41.595C62.2772 41.7746 62.2802 41.9768 62.1961 42.1583L56.3512 57.3571C56.2824 57.5054 56.1674 57.635 56.0185 57.7319C55.8994 57.8201 55.7507 57.8742 55.5935 57.8868L55.3823 57.8958Z" fill="#2E4083"/>
<path d="M73.0386 57.8958C67.9645 57.8958 64.4217 54.435 64.4217 49.4816C64.4217 44.4071 67.7005 41.0316 72.8538 40.9979C79.5753 40.9508 80.4253 44.9794 80.4253 48.8532V48.9856C80.422 49.0792 80.3966 49.1712 80.3505 49.2562C80.3043 49.3412 80.2385 49.4175 80.1569 49.4803C80.0753 49.5432 79.9797 49.5914 79.8756 49.6221C79.7716 49.6528 79.6614 49.6653 79.5515 49.6589H66.1667V49.7554C66.3911 53.8469 68.8278 56.2058 73.0307 56.3988C73.1812 56.3988 73.3264 56.41 73.4742 56.41C75.0952 56.4319 76.6771 55.9865 77.9622 55.1464C78.2579 54.8816 78.4902 54.7604 78.7357 54.7604C78.8824 54.771 79.0229 54.8152 79.1423 54.8883C79.3407 55 79.4811 55.1721 79.5346 55.3692C79.5882 55.5663 79.5507 55.7733 79.4301 55.9477C78.5958 56.8813 76.4733 57.8958 73.0386 57.8958ZM72.9172 42.4837C69.4218 42.4837 66.729 44.1041 66.2961 48.0946L66.2723 48.2046H78.7701C78.7701 45.7268 78.4269 42.4837 72.9172 42.4837Z" fill="#2E4083"/>
<path d="M86.2281 57.8958C86.11 57.9 85.9921 57.8839 85.8815 57.8486C85.7709 57.8132 85.6698 57.7592 85.5843 57.6899C85.4988 57.6205 85.4306 57.5372 85.3838 57.445C85.337 57.3527 85.3126 57.2534 85.312 57.1529V41.7767C85.3122 41.676 85.3364 41.5765 85.383 41.4839C85.4297 41.3914 85.4978 41.3079 85.5834 41.2383C85.6689 41.1687 85.7701 41.1145 85.8809 41.079C85.9917 41.0435 86.1098 41.0273 86.2281 41.0316C86.4547 41.0369 86.6697 41.1182 86.826 41.2578C86.9823 41.3975 87.0673 41.584 87.0623 41.7767V43.6777L87.2709 43.7181C87.9213 42.9258 88.7875 42.2792 89.7957 41.8332C90.8038 41.3873 91.9239 41.1554 93.0604 41.1573C93.5541 41.1573 94.251 41.3458 94.251 41.7632C94.251 42.1807 94.0768 42.4859 93.195 42.4882C90.6263 42.5016 89.5782 43.1188 88.8285 43.7854C87.0993 45.3228 87.0517 47.7669 87.0517 47.7916V57.1529C87.0567 57.3439 86.9732 57.5289 86.819 57.6679C86.6649 57.8069 86.4526 57.8887 86.2281 57.8958Z" fill="#2E4083"/>
<path d="M108.209 57.429C108.101 57.4314 107.994 57.4152 107.894 57.3814C107.794 57.3475 107.703 57.2967 107.627 57.232C107.551 57.1673 107.491 57.0901 107.452 57.0051C107.412 56.9201 107.393 56.8291 107.396 56.7377V35.4341C107.398 35.2515 107.485 35.077 107.637 34.9479C107.789 34.8188 107.994 34.7452 108.209 34.7429H114.753C116.502 34.7482 118.177 35.3436 119.41 36.3982C120.643 37.4527 121.334 38.8803 121.329 40.3672C121.329 42.0707 119.745 44.1827 117.713 45.1971L117.507 45.3004L117.734 45.3677C120.77 46.2497 122.375 48.1934 122.375 50.9786C122.373 52.6864 121.574 54.3238 120.153 55.5314C118.733 56.739 116.807 57.4182 114.798 57.42L108.209 57.429ZM109.059 56.015H114.798C115.575 56.0165 116.345 55.8875 117.063 55.6355C117.781 55.3836 118.433 55.0135 118.983 54.5466C119.532 54.0797 119.968 53.5252 120.264 52.9148C120.561 52.3044 120.713 51.6503 120.712 50.9899C120.675 48.3437 118.188 46.427 114.798 46.427H109.059V56.015ZM109.059 44.9794H114.204C116.91 44.9794 119.666 42.652 119.666 40.3672C119.67 39.2557 119.154 38.1883 118.233 37.3994C117.312 36.6105 116.061 36.1644 114.753 36.1591H109.059V44.9794Z" fill="#2E4083"/>
<path d="M129.168 57.4289C128.953 57.4266 128.748 57.353 128.596 57.2239C128.444 57.0948 128.357 56.9203 128.355 56.7377V35.4341C128.355 35.2466 128.442 35.0668 128.598 34.9342C128.754 34.8016 128.966 34.7271 129.186 34.7271C129.407 34.7271 129.618 34.8016 129.774 34.9342C129.93 35.0668 130.018 35.2466 130.018 35.4341V56.7377C130.015 56.8305 129.991 56.9221 129.947 57.0071C129.903 57.0921 129.84 57.1688 129.761 57.233C129.682 57.2972 129.589 57.3476 129.487 57.3812C129.386 57.4148 129.277 57.431 129.168 57.4289Z" fill="#2E4083"/>
<defs>
<linearGradient id="paint0_linear_2008_27" x1="193.003" y1="8.89893" x2="216.933" y2="86.2368" gradientUnits="userSpaceOnUse">
<stop offset="0.01" stop-color="#4457A0"/>
<stop offset="0.32" stop-color="#2E4083"/>
<stop offset="0.63" stop-color="#2E4083"/>
<stop offset="1" stop-color="#0D1430"/>
</linearGradient>
<linearGradient id="paint1_linear_2008_27" x1="202.473" y1="91.8217" x2="202.473" y2="22.8544" gradientUnits="userSpaceOnUse">
<stop stop-color="#C17F06"/>
<stop offset="0.22" stop-color="#C17F06" stop-opacity="0.99"/>
<stop offset="0.37" stop-color="#C28006" stop-opacity="0.94"/>
<stop offset="0.5" stop-color="#C38107" stop-opacity="0.86"/>
<stop offset="0.61" stop-color="#C58207" stop-opacity="0.75"/>
<stop offset="0.72" stop-color="#C78408" stop-opacity="0.61"/>
<stop offset="0.82" stop-color="#CA8609" stop-opacity="0.43"/>
<stop offset="0.91" stop-color="#CD890B" stop-opacity="0.22"/>
<stop offset="1" stop-color="#D08C0C" stop-opacity="0"/>
</linearGradient>
<linearGradient id="paint2_linear_2008_27" x1="174.533" y1="22.5469" x2="192.184" y2="94.9495" gradientUnits="userSpaceOnUse">
<stop stop-color="#F6D54E"/>
<stop offset="0.0001" stop-color="#6679C1"/>
<stop offset="0.31" stop-color="#2E4083"/>
<stop offset="0.57" stop-color="#2E4083"/>
<stop offset="0.764192" stop-color="#233165"/>
<stop offset="1" stop-color="#151E40"/>
</linearGradient>
<linearGradient id="paint3_linear_2008_27" x1="176.973" y1="91.8217" x2="176.973" y2="45.6774" gradientUnits="userSpaceOnUse">
<stop stop-color="#F7DB5E"/>
<stop offset="0.2" stop-color="#F7DA5D" stop-opacity="0.99"/>
<stop offset="0.34" stop-color="#F5D75A" stop-opacity="0.95"/>
<stop offset="0.45" stop-color="#F3D255" stop-opacity="0.89"/>
<stop offset="0.56" stop-color="#EFCC4E" stop-opacity="0.8"/>
<stop offset="0.66" stop-color="#EBC345" stop-opacity="0.69"/>
<stop offset="0.75" stop-color="#E6B839" stop-opacity="0.55"/>
<stop offset="0.84" stop-color="#DFAB2C" stop-opacity="0.39"/>
<stop offset="0.92" stop-color="#D89C1D" stop-opacity="0.21"/>
<stop offset="1" stop-color="#D08C0C" stop-opacity="0"/>
</linearGradient>
<linearGradient id="paint4_linear_2008_27" x1="156.241" y1="44.36" x2="168.637" y2="95.2179" gradientUnits="userSpaceOnUse">
<stop stop-color="#253366"/>
<stop offset="0.31" stop-color="#2E4083"/>
<stop offset="0.57" stop-color="#2E4083"/>
<stop offset="1" stop-color="#263673"/>
</linearGradient>
</defs>
</svg>
